<svg width="1473" height="769" viewBox="0 0 1473 769" fill="none" xmlns="http://www.w3.org/2000/svg">
<g clip-path="url(#clip0)">
<path opacity="0.4" fill-rule="evenodd" clip-rule="evenodd" d="M114.974 -245.578C81.7997 -183.503 -74.4111 -162.116 -108.883 -53.2555C-143.354 55.6058 -55.3106 114.1 -80.4465 179.334C-105.584 244.568 -78.9305 286.381 -44.0361 299.726C-9.14173 313.071 40.1484 299.367 57.8943 253.312C75.6402 207.258 126.052 193.573 200.586 186.905C275.12 180.237 305.774 69.9718 338.78 -52.9215C366.051 -154.46 316.095 -229.74 263.038 -263.883C260.285 -265.655 263.038 -263.883 254.697 -269.03C198.336 -303.806 148.148 -307.653 114.974 -245.578Z" fill="url(#paint0_linear)"/>
<path opacity="0.4" fill-rule="evenodd" clip-rule="evenodd" d="M1427.84 206.287C1402.56 271.976 1250.18 312.443 1229.38 424.721C1208.58 537 1303.16 584.202 1286.25 652.036C1269.34 719.87 1300.94 758.081 1337.22 767.026C1373.49 775.97 1420.72 756.298 1432.65 708.408C1444.59 660.519 1492.93 640.727 1566.08 624.928C1639.22 609.129 1656.06 495.927 1673.67 369.904C1688.23 265.78 1629.38 197.227 1572.52 169.881C1569.57 168.462 1572.52 169.881 1563.61 165.801C1503.39 138.233 1453.11 140.598 1427.84 206.287Z" fill="url(#paint1_linear)"/>
</g>
<defs>
<linearGradient id="paint0_linear" x1="201.94" y1="379.744" x2="269.038" y2="-328.908" gradientUnits="userSpaceOnUse">
<stop offset="0.287293" stop-color="#516BF0"/>
<stop offset="1" stop-color="#19AEFF"/>
</linearGradient>
<linearGradient id="paint1_linear" x1="1501.53" y1="147.59" x2="1380.36" y2="775.444" gradientUnits="userSpaceOnUse">
<stop stop-color="#FE7A60"/>
<stop offset="1" stop-color="#FD5E60"/>
</linearGradient>
<clipPath id="clip0">
<rect width="1473" height="769" fill="white"/>
</clipPath>
</defs>
</svg>
