<?xml version="1.0" encoding="iso-8859-1"?>
<!-- Generator: Adobe Illustrator 19.0.0, SVG Export Plug-In . SVG Version: 6.00 Build 0)  -->
<svg version="1.1" id="Capa_1" xmlns="http://www.w3.org/2000/svg" xmlns:xlink="http://www.w3.org/1999/xlink" x="0px" y="0px"
	 viewBox="0 0 480.045 480.045" style="enable-background:new 0 0 480.045 480.045;" xml:space="preserve">
<g>
	<path style="fill:#FFCD00;" d="M8.024,240.026c-0.011,32.261,23.992,59.487,56,63.52c2.655,0.322,5.326,0.482,8,0.48h16v-128h-16
		c-2.621-0.002-5.239,0.158-7.84,0.48C32.089,180.421,7.976,207.694,8.024,240.026z"/>
	<path style="fill:#FFCD00;" d="M415.864,176.506c-2.601-0.322-5.219-0.482-7.84-0.48h-16v128h16c2.674,0.002,5.345-0.158,8-0.48
		c35.076-4.365,59.972-36.338,55.607-71.413C468.004,202.993,445.013,180.059,415.864,176.506L415.864,176.506z"/>
</g>
<circle style="fill:#FFD839;" cx="264.024" cy="448.026" r="24"/>
<path style="fill:#231F20;" d="M480.024,240.026c0.016-33.899-23.615-63.217-56.744-70.4
	C415.447,68.419,327.052-7.276,225.845,0.557C135.524,7.547,63.766,79.306,56.776,169.626c-13.511,2.973-25.898,9.729-35.712,19.48
	C-7.029,217.25-6.987,262.838,21.156,290.93c10.656,10.636,24.378,17.665,39.236,20.097c1.114,0.618,2.359,0.961,3.632,1
	c0.507-0.013,1.013-0.067,1.512-0.16c0.21-0.05,0.415-0.114,0.616-0.192c1.944,0.152,3.872,0.352,5.872,0.352h16
	c4.418,0,8-3.582,8-8v-128c0-4.418-3.582-8-8-8H72.976C81.622,75.762,163.427,7.976,255.692,16.622
	c80.295,7.525,143.879,71.109,151.404,151.404h-15.072c-4.418,0-8,3.582-8,8v128c0,4.418,3.582,8,8,8h16v16
	c0,61.712-48.24,108.616-113.232,111.704c-4.623-17.021-22.169-27.072-39.19-22.448c-17.021,4.623-27.072,22.169-22.448,39.19
	s22.169,27.072,39.19,22.448c11.2-3.042,19.868-11.921,22.64-23.19c74.016-3.224,129.04-56.952,129.04-127.704v-17.832
	c13.212-3.052,25.316-9.716,34.96-19.248C472.483,277.442,480.054,259.121,480.024,240.026z M80.024,296.026
	c0,0-12.712-0.144-15.016-0.416c-30.701-3.736-52.561-31.653-48.825-62.355c3.119-25.629,23.355-45.804,48.993-48.845
	c2.24-0.24,14.848-0.384,14.848-0.384V296.026z M264.024,464.026c-8.837,0-16-7.163-16-16s7.163-16,16-16s16,7.163,16,16
	S272.86,464.026,264.024,464.026z M415.064,295.602c-2.328,0.28-15.04,0.424-15.04,0.424v-112c0,0,12.608,0.144,14.88,0.424
	c30.717,3.794,52.542,31.771,48.747,62.487c-1.529,12.375-7.14,23.886-15.948,32.713
	C438.863,288.398,427.397,294.002,415.064,295.602z"/>
<g>
</g>
<g>
</g>
<g>
</g>
<g>
</g>
<g>
</g>
<g>
</g>
<g>
</g>
<g>
</g>
<g>
</g>
<g>
</g>
<g>
</g>
<g>
</g>
<g>
</g>
<g>
</g>
<g>
</g>
</svg>
